<svg width="34" height="34" viewBox="0 0 34 34" fill="none" xmlns="http://www.w3.org/2000/svg">
<path fill-rule="evenodd" clip-rule="evenodd" d="M20.3655 5.6406C19.3285 5.20061 18.1903 4.95837 17.0006 4.95837C12.6071 4.95837 8.91621 8.26188 8.43104 12.6285L8.07432 15.839L8.06546 15.9181C7.8942 17.4105 7.40843 18.8496 6.64019 20.1405L6.5993 20.2088L5.78042 21.5736L5.76067 21.6065C5.4059 22.1977 5.11202 22.6875 4.92101 23.0931C4.72821 23.5025 4.57961 23.9453 4.65366 24.4146C4.73372 24.922 4.99486 25.3832 5.38876 25.7129C5.75309 26.0178 6.20923 26.1182 6.65945 26.1635C7.1055 26.2084 7.67668 26.2084 8.36618 26.2084H8.36622H8.40459H25.5966H25.635H25.635C26.3245 26.2084 26.8957 26.2084 27.3417 26.1635C27.792 26.1182 28.2481 26.0178 28.6124 25.7129C29.0063 25.3832 29.2675 24.922 29.3475 24.4146C29.4216 23.9453 29.273 23.5025 29.0802 23.0931C28.8892 22.6875 28.5953 22.1977 28.2405 21.6065L28.2405 21.6065L28.2208 21.5736L27.4019 20.2088L27.361 20.1405C26.5928 18.8496 26.107 17.4105 25.9357 15.9181L25.9269 15.839L25.8667 15.2973C25.4234 15.4441 24.9559 15.5376 24.4716 15.5703L24.5189 15.9954L24.5283 16.0796C24.7224 17.771 25.2729 19.402 26.1436 20.865L26.1871 20.9377L27.006 22.3025C27.3855 22.935 27.6416 23.3634 27.7985 23.6967C27.9573 24.0337 27.9543 24.1547 27.9482 24.1938C27.9215 24.3629 27.8344 24.5166 27.7031 24.6265C27.6728 24.6519 27.5706 24.7167 27.1999 24.754C26.8334 24.7908 26.3342 24.7917 25.5966 24.7917H8.40459C7.66695 24.7917 7.16779 24.7908 6.80126 24.754C6.43063 24.7167 6.32836 24.6519 6.29805 24.6265C6.16675 24.5166 6.07971 24.3629 6.05302 24.1938C6.04686 24.1547 6.04393 24.0337 6.20265 23.6967C6.3596 23.3634 6.61569 22.935 6.9952 22.3025L7.81408 20.9377L7.85759 20.865C8.72825 19.402 9.2788 17.771 9.47289 16.0796L9.48232 15.9954L9.83904 12.7849C10.2445 9.13577 13.329 6.37504 17.0006 6.37504C17.8275 6.37504 18.6246 6.51507 19.368 6.77373C19.6491 6.35288 19.985 5.97176 20.3655 5.6406ZM22.9354 7.32584C22.4894 7.52382 22.1041 7.83354 21.815 8.21945C23.0826 9.35771 23.9484 10.9436 24.1581 12.7491C24.6604 12.7362 25.1303 12.5925 25.5348 12.3509C25.2503 10.3705 24.3035 8.62361 22.9354 7.32584Z" fill="white"/>
<path d="M12.8948 26.075C13.137 27.1293 13.6705 28.0609 14.4128 28.7254C15.155 29.3898 16.0644 29.75 17 29.75C17.9356 29.75 18.845 29.3898 19.5872 28.7254C20.3295 28.0609 20.863 27.1293 21.1052 26.075" stroke="white" stroke-width="1.41667" stroke-linecap="round"/>
<circle cx="24.0833" cy="9.91671" r="2.83333" fill="white"/>
</svg>
