<svg width="24" height="24" viewBox="0 0 24 24" fill="none" xmlns="http://www.w3.org/2000/svg">
<circle cx="12" cy="8" r="2" stroke="white" stroke-width="2" stroke-linecap="round"/>
<path d="M14.201 6.75C14.3493 6.49307 14.5705 6.28591 14.8366 6.15469C15.1026 6.02348 15.4017 5.97411 15.6958 6.01283C15.9899 6.05156 16.266 6.17663 16.489 6.37224C16.7121 6.56785 16.8721 6.82521 16.9489 7.11177C17.0257 7.39833 17.0158 7.70123 16.9204 7.98216C16.825 8.26309 16.6485 8.50943 16.4131 8.69003C16.1778 8.87063 15.8941 8.97739 15.5981 8.99679C15.3021 9.01619 15.0069 8.94737 14.75 8.79904" stroke="white" stroke-width="2"/>
<path d="M9.79904 6.75C9.6507 6.49307 9.42951 6.28591 9.16343 6.15469C8.89736 6.02348 8.59834 5.97411 8.30421 6.01283C8.01008 6.05156 7.73403 6.17663 7.51098 6.37224C7.28793 6.56785 7.1279 6.82521 7.05111 7.11177C6.97433 7.39833 6.98424 7.70123 7.0796 7.98216C7.17497 8.26309 7.35149 8.50943 7.58686 8.69003C7.82222 8.87063 8.10586 8.97739 8.4019 8.99679C8.69793 9.01619 8.99307 8.94737 9.25 8.79904" stroke="white" stroke-width="2"/>
<path d="M12 12.5C16.0802 12.5 17.1335 15.8022 17.4054 17.507C17.4924 18.0524 17.0523 18.5 16.5 18.5H7.5C6.94771 18.5 6.50763 18.0524 6.59461 17.507C6.86649 15.8022 7.91976 12.5 12 12.5Z" stroke="white" stroke-width="2" stroke-linecap="round"/>
<path d="M19.2973 15.4162L18.3273 15.6592L19.2973 15.4162ZM13.0879 12.5859L12.3494 11.9116L11.1085 13.2707L12.924 13.5724L13.0879 12.5859ZM17.1821 16.5L16.2215 16.7779L16.4304 17.5H17.1821V16.5ZM15.5008 12.5C16.3323 12.5 16.9188 12.8938 17.3793 13.5072C17.8609 14.1486 18.1572 14.9801 18.3273 15.6592L20.2674 15.1733C20.0692 14.382 19.6912 13.2553 18.9786 12.3063C18.2449 11.3291 17.1172 10.5 15.5008 10.5V12.5ZM13.8264 13.2602C14.2491 12.7972 14.7754 12.5 15.5008 12.5V10.5C14.1196 10.5 13.0828 11.1084 12.3494 11.9116L13.8264 13.2602ZM12.924 13.5724C14.9498 13.909 15.824 15.4039 16.2215 16.7779L18.1427 16.2221C17.6471 14.5088 16.3764 12.1187 13.2518 11.5994L12.924 13.5724ZM18.3958 15.5H17.1821V17.5H18.3958V15.5ZM18.3273 15.6592C18.3238 15.6454 18.3217 15.6196 18.3292 15.5892C18.3362 15.5605 18.3489 15.5392 18.3605 15.5255C18.3831 15.4989 18.4014 15.5 18.3958 15.5V17.5C19.5456 17.5 20.5909 16.4653 20.2674 15.1733L18.3273 15.6592Z" fill="white"/>
<path d="M10.912 12.5859L11.076 13.5724L12.8914 13.2707L11.6505 11.9116L10.912 12.5859ZM4.70258 15.4162L5.67262 15.6592L4.70258 15.4162ZM6.81783 16.5V17.5H7.56952L7.77843 16.7779L6.81783 16.5ZM8.49913 12.5C9.2245 12.5 9.75085 12.7972 10.1735 13.2602L11.6505 11.9116C10.9172 11.1084 9.88033 10.5 8.49913 10.5V12.5ZM5.67262 15.6592C5.84267 14.9801 6.139 14.1486 6.62065 13.5072C7.08115 12.8938 7.66764 12.5 8.49913 12.5V10.5C6.88272 10.5 5.75505 11.3291 5.0213 12.3063C4.3087 13.2553 3.93071 14.382 3.73253 15.1733L5.67262 15.6592ZM5.60412 15.5C5.59847 15.5 5.61677 15.4989 5.63939 15.5255C5.65102 15.5392 5.66372 15.5605 5.67075 15.5892C5.67822 15.6196 5.67607 15.6454 5.67262 15.6592L3.73253 15.1733C3.40898 16.4653 4.45427 17.5 5.60412 17.5V15.5ZM6.81783 15.5H5.60412V17.5H6.81783V15.5ZM7.77843 16.7779C8.17596 15.4039 9.05017 13.909 11.076 13.5724L10.7481 11.5994C7.62348 12.1187 6.35288 14.5089 5.85722 16.2221L7.77843 16.7779Z" fill="white"/>
</svg>
